<?xml version="1.0" encoding="UTF-8" standalone="no"?>
<svg
   xmlns:dc="http://purl.org/dc/elements/1.1/"
   xmlns:cc="http://creativecommons.org/ns#"
   xmlns:rdf="http://www.w3.org/1999/02/22-rdf-syntax-ns#"
   xmlns:svg="http://www.w3.org/2000/svg"
   xmlns="http://www.w3.org/2000/svg"
   xmlns:sodipodi="http://sodipodi.sourceforge.net/DTD/sodipodi-0.dtd"
   xmlns:inkscape="http://www.inkscape.org/namespaces/inkscape"
   version="1.0"
   width="300.000000pt"
   height="120.000000pt"
   viewBox="0 0 300.000000 120.000000"
   preserveAspectRatio="xMidYMid meet"
   id="svg34"
   sodipodi:docname="logo6.svg"
   inkscape:version="1.0.1 (c497b03c, 2020-09-10)">
  <defs
     id="defs38" />
  <sodipodi:namedview
     pagecolor="#ffffff"
     bordercolor="#666666"
     borderopacity="1"
     objecttolerance="10"
     gridtolerance="10"
     guidetolerance="10"
     inkscape:pageopacity="0"
     inkscape:pageshadow="2"
     inkscape:window-width="1076"
     inkscape:window-height="795"
     id="namedview36"
     showgrid="false"
     inkscape:snap-page="true"
     inkscape:zoom="2.2299488"
     inkscape:cx="161.10716"
     inkscape:cy="52.181692"
     inkscape:window-x="0"
     inkscape:window-y="25"
     inkscape:window-maximized="0"
     inkscape:current-layer="svg34" />
  <metadata
     id="metadata10">
Created by potrace 1.10, written by Peter Selinger 2001-2011
<rdf:RDF>
  <cc:Work
     rdf:about="">
    <dc:format>image/svg+xml</dc:format>
    <dc:type
       rdf:resource="http://purl.org/dc/dcmitype/StillImage" />
  </cc:Work>
</rdf:RDF>
</metadata>
  <g
     transform="translate(0.000000,120.000000) scale(0.100000,-0.100000)"
     fill="#000000"
     stroke="none"
     id="g32">
    <path
       d="M 654.13553,1001 C 547.98616,971 503.1189,920 487.79837,813 474.6665,720 483.42107,380 499.83593,331 543.60887,200 790.92596,154 921.15045,252 c 59.09346,44 74.414,80 80.97995,185 l 5.4716,93 H 895.98101 785.45435 v -83 c 0,-90 -14.22621,-122 -50.33888,-115 -19.69782,3 -20.79214,15 -24.07512,271 -2.18864,241 -1.09432,268 15.32053,274 42.67861,15 53.62184,-9 56.90482,-118 l 3.28297,-104 H 894.88668 1004.319 v 77 c 0,159 -39.39561,228 -148.82796,262 -53.62185,17 -153.20528,20 -201.35551,7 z m 145.54503,-18 c 4.37729,-3 19.69782,-8 35.01834,-9 15.32053,-1 35.01835,-9 43.77294,-18 8.75458,-8 26.26375,-17 37.20699,-21 36.11267,-10 59.09347,-72 63.47076,-166 2.18864,-62 -1.09432,-86 -10.94323,-86 -6.56595,0 -17.50918,-2 -24.07512,-3 -5.47161,-1 -38.30132,-2 -72.22534,-1 l -60.1878,1 -3.28297,93 C 805.15217,876 792.02028,900 740.58708,900 680.3993,900 676.022,882 676.022,603 c 0,-247 0,-253 24.07512,-273 61.28211,-52 108.33801,-9 110.52666,99 0,39 3.28298,68 6.56594,66 2.18866,-3 10.94323,0 19.69782,6 10.94324,9 18.6035,8 32.82971,-2 12.03756,-10 15.32052,-10 9.84891,-1 -10.94323,16 17.50917,16 36.11267,0 12.03756,-10 14.22621,-10 7.66026,0 -9.84891,15 21.88648,17 32.8297,1 4.3773,-8 9.84891,-7 16.41486,2 5.47162,8 7.66026,-19 5.47162,-66 -5.47162,-111 -27.35809,-148 -103.96073,-183 -84.26291,-37 -179.46903,-38 -264.82626,-1 -87.54589,39 -91.92317,55 -91.92317,354 0,132 3.28296,252 7.66026,266 8.75459,28 55.8105,79 73.31966,79 5.47163,0 12.03757,5 14.22622,12 2.18864,6 19.69782,11 39.39564,11 19.69782,0 35.01834,4 35.01834,9 0,10 102.8664,11 112.71533,1 z"
       id="path12"
       style="stroke-width:1.0461" />
    <path
       d="M1040 605 l0 -390 100 0 100 0 0 178 c0 182 1 188 41 167 18 -10 19 -23 19 -175 l0 -164 95 -3 95 -3 0 158 c0 184 -7 208 -73 237 -42 19 -42 19 -11 19 19 1 39 10 55 27 22 24 24 33 24 129 0 112 -8 134 -69 179 -24 19 -46 22 -202 26 l-174 5 0 -390z m342 354 c70 -37 95 -101 86 -215 -5 -55 -30 -94 -61 -94 -8 0 -20 -7 -27 -15 -16 -19 0 -40 35 -49 44 -11 55 -51 55 -201 l0 -135 -69 0 -69 0 -4 143 c-2 111 -7 149 -19 168 -18 27 -61 36 -78 16 -6 -8 -12 -77 -13 -172 l-3 -159 -65 1 c-36 1 -70 2 -77 2 -9 1 -12 87 -12 359 l0 358 149 3 c102 2 156 -1 172 -10z"
       id="path22" />
    <path
       d="M1230 870 c-6 -11 -10 -58 -8 -108 l3 -87 38 -3 c35 -3 39 -1 52 32 35 83 3 185 -57 186 -10 0 -22 -9 -28 -20z m59 -24 c7 -9 11 -41 9 -83 -3 -66 -4 -68 -30 -71 l-28 -3 0 85 c0 77 2 86 19 86 10 0 24 -6 30 -14z"
       id="path24" />
    <path
       id="path26"
       style="stroke-width:0.999997"
       d="m 1519.9952,996.77035 v -390 -389.99997 l 175.0048,1.86617 175.0049,1.86617 v 74.00385 75 l -75,0.48717 -75,0.48716 v 87.9932 86.99707 l 62.9883,-3.39743 63.0029,-4.42291 -3.999,60.02598 c -0.8126,13.41262 -0.8855,25.91506 -0.366,36.55023 -0.4485,5.71838 -0.7178,12.27954 -0.7178,19.7947 v 0.249 12.74414 11.96778 c -0.9653,3.43906 -1.9813,7.0223 -2.9443,10.4781 -0.1433,0.0935 -0.2918,0.17732 -0.4395,0.26656 -0.068,0.0372 -0.135,0.0721 -0.2048,0.10385 -0.198,0.0892 -0.4222,0.1265 -0.615,0.22375 -1.099,0.55449 -0.096,0.083 -0.8496,0.56217 -0.093,0.0591 -0.1927,0.1007 -0.2932,0.14838 -0.077,0.0312 -0.1545,0.0737 -0.234,0.0894 -0.711,0.13264 -0.267,-0.0448 -0.9669,0.0648 -0.1334,0.0211 -0.264,0.0497 -0.3952,0.0761 -8.7271,-1.0208 -23.4216,-1.10781 -46.9639,-0.95489 l -67.002,0.43521 v 75 75 l 64.9951,-0.42218 64.9952,-0.42218 v 78.00293 76.99219 l -165,1.07177 z m 165,-28.06884 142.998,-0.92886 V 915.7707 l -0.9961,-52.99158 -54.9903,-1.63499 c -30,-0.80513 -59.0029,-3.61874 -63.0029,-6.59271 -12,-6.92206 -12,-170.92986 0,-178.00782 4,-3.02595 33.9951,-6.22277 64.9951,-7.42413 31,-1.20137 52,-6.32801 45,-10.28253 -10,-5.93505 -10,-10.93701 0,-22.00196 8,-11.05196 8.9961,-17.06038 0.9962,-22.00842 -6,-3.96103 -7.9952,-14.94904 -4.9952,-25.96853 6,-17.03898 1.0029,-19.00554 -41.9971,-18.72623 -27,0.17538 -53.9961,-4.64633 -60.9961,-11.60086 -14,-13.90907 -17.0136,-193.89147 -4.0136,-201.97586 5,-3.03248 39.0107,-6.25535 76.0107,-7.49574 37,-1.24031 63.9893,-5.41364 58.9893,-8.38117 -12,-8.92205 -14.9991,-33.90359 -3.999,-25.97502 12,6.92203 10.0077,-57.07086 -1.9923,-65.99291 -4.9999,-2.96752 -58.0077,-3.61538 -118.0077,-1.2257 -71.0001,3.46119 -114.9883,1.74112 -122.9883,-5.20697 -26.0001,-21.83109 -43.0098,-1.7235 -50.0098,57.32192 -4,31.02603 -5.9912,194.04196 -5.9912,363.04186 l 1.9922,305.99292 z m 381.5771,-214.25103 c -0.067,-0.0521 -0.1388,-0.0936 -0.2055,-0.14514 0.068,-0.46439 0.1492,-1.04881 0.2197,-1.53951 -0.03,0.48829 0.037,1.28667 -0.015,1.68466 z M 1829.1358,718.6246 c 0.4117,-0.78033 0.7987,-1.56602 1.289,-2.32282 -0.165,0.59312 -0.3682,1.31281 -0.5565,1.98115 -0.3187,0.15252 -0.4027,0.18292 -0.732,0.34166 z" />
    <path
       id="path28"
       style="stroke-width:0.914723"
       d="m 1865.5674,994.99512 4.1918,-24.99024 C 1872.2693,956.00489 1889.8339,783 1909.0784,585 c 18.4078,-198 35.1487,-361.0068 35.9855,-362.00685 0.8366,-0.99998 48.5222,-2.99903 105.4191,-3.999 l 104.598,-0.99608 18.4095,157.998 c 10.0406,88.0001 18.3972,178.00197 18.3972,202.00198 0.8366,26 4.1844,41.00195 9.2047,37.00195 5.0203,-3 8.3712,-23.99609 8.3712,-45.99609 0,-40 18.4086,-200.00391 34.3063,-299.00391 l 9.2047,-55.00485 h 103.7523 103.7523 l 4.1795,30 c 4.1836,30.99998 71.1252,730.99801 71.1252,742.99801 0,4 -36.8173,6.00977 -81.1633,5.00977 l -81.9968,-0.99609 -14.23,-129.00879 C 2339.986,695.99805 2329.9462,459 2342.497,480 c 5.0203,8 9.2047,40.00488 9.2047,70.00488 0,48 10.0456,163.00001 30.1268,360 l 5.0252,56.00098 h 65.2543 c 51.0398,-1 63.5889,-3.00781 56.8951,-13.00781 -4.1835,-7 -5.8472,-17.00196 -2.5003,-22.00196 5.857,-11.99998 -51.883,-649.99022 -61.087,-669.99024 -5.0203,-9.99998 -25.9317,-13.01168 -89.5224,-12.0117 -46.0195,0.99997 -86.1877,5.0088 -89.5345,9.00877 -3.347,3.99998 -15.0634,85.99223 -27.6142,181.99223 -11.714,95.99985 -25.0974,178.99899 -29.2811,183.99899 -13.3875,16 -33.4728,-14.99805 -33.4728,-52.99805 -0.8367,-20 -4.1844,-55.99121 -9.2047,-80.99121 -4.1836,-25 -11.7133,-81.00978 -15.8968,-125.00973 -13.3876,-132 -4.1747,-120 -99.5606,-120 -46.0195,0 -85.3542,3.00585 -88.7011,6.00585 -4.1836,4.99995 -19.2405,156.99413 -54.3826,533.99412 -7.5305,87 -10.8782,146.99804 -9.2048,172.99804 0.8367,8.00001 17.576,12.01172 55.2283,12.01172 65.2641,0 59.4071,21.99512 75.3047,-265.00488 5.0203,-89 18.3989,-215.99707 24.2559,-221.99707 8.3671,-10 5.8619,99.99218 -7.5256,286.99219 -6.6938,96 -12.5508,186.00977 -12.5508,200.00976 0,25 -0.01,24.99024 -83.6759,24.99024 z" />
    <path
       d="m 2105.4464,985 c -7.9212,-31 -38.7262,-384 -37.846,-442 l 1.7603,-68 7.0411,50 c 8.8014,60 44.007,403 44.007,428 0,15 9.6816,17 73.9319,17 70.4113,0 74.812,-1 79.2127,-22 4.4007,-25 22.0035,-267 28.1645,-393 1.7603,-44 7.9213,-84 13.2021,-90 10.5617,-11 3.5206,198 -13.2021,403 l -10.5617,124 -91.5346,1 c -54.5688,1 -92.4149,-2 -94.1752,-8 z"
       id="path30"
       style="stroke-width:0.938161" />
  </g>
</svg>
